<?xml version="1.0" standalone="no"?>
<!DOCTYPE svg PUBLIC "-//W3C//DTD SVG 20010904//EN"
 "http://www.w3.org/TR/2001/REC-SVG-20010904/DTD/svg10.dtd">
<svg version="1.0" xmlns="http://www.w3.org/2000/svg"
 width="1920.000000pt" height="1920.000000pt" viewBox="0 0 1920.000000 1920.000000"
 preserveAspectRatio="xMidYMid meet">

<g transform="translate(0.000000,1920.000000) scale(0.100000,-0.100000)"
fill="#000000" stroke="none">
<path d="M7830 15899 c-525 -55 -883 -401 -1011 -979 -21 -94 -24 -130 -24
-355 0 -244 9 -790 20 -1170 3 -104 12 -534 20 -955 8 -421 20 -983 25 -1250
24 -1172 31 -1582 27 -1586 -3 -3 -42 39 -88 93 -114 136 -374 392 -492 486
-267 214 -536 350 -769 387 -111 18 -322 8 -418 -20 -357 -102 -663 -420 -775
-805 -43 -149 -58 -271 -52 -440 9 -269 79 -526 216 -798 129 -255 175 -323
677 -987 398 -526 672 -910 812 -1135 27 -44 95 -154 152 -245 230 -368 495
-852 714 -1303 270 -555 237 -464 701 -1922 l420 -1320 2315 0 2314 0 86 170
c172 342 362 769 540 1215 89 223 221 568 240 630 5 14 38 111 74 215 404
1159 671 2403 725 3371 11 188 16 557 27 1859 9 1132 -3 1288 -126 1540 -119
245 -321 432 -593 549 -257 110 -630 135 -912 60 -157 -41 -144 -43 -190 22
-121 171 -348 331 -575 407 -157 52 -228 62 -465 62 -203 0 -229 -3 -331 -27
-61 -14 -156 -45 -210 -67 -54 -22 -99 -39 -100 -38 -1 1 -14 27 -29 57 -149
298 -422 512 -770 606 -165 44 -475 52 -677 18 l-37 -6 -4 1293 c-3 1431 1
1325 -68 1533 -133 399 -467 714 -859 810 -144 35 -341 44 -530 25z m384 -463
c292 -56 508 -274 600 -606 21 -75 21 -77 23 -2617 l3 -2543 225 0 225 0 0
1049 0 1049 88 21 c166 38 368 37 527 -4 33 -9 103 -37 155 -62 77 -38 110
-63 176 -128 86 -85 128 -150 166 -255 l23 -65 3 -1087 3 -1088 224 0 225 0 0
985 0 984 43 29 c163 112 359 162 591 149 335 -19 598 -190 699 -455 22 -57
22 -60 27 -1102 l5 -1045 225 0 225 0 5 1050 5 1049 60 20 c85 28 436 30 535
3 214 -58 393 -198 476 -371 44 -91 51 -131 67 -396 11 -186 11 -418 1 -1350
-12 -1172 -18 -1412 -35 -1620 -103 -1250 -518 -2783 -1157 -4275 -89 -207
-248 -558 -297 -655 l-25 -50 -2004 0 -2004 0 -31 93 c-16 50 -185 580 -375
1177 -394 1239 -365 1163 -723 1880 -295 591 -548 1034 -846 1480 -273 409
-401 585 -949 1312 -163 216 -326 440 -363 498 -129 206 -221 420 -265 615
-33 142 -33 354 -2 475 38 145 97 253 197 359 153 163 349 224 553 173 335
-85 750 -439 1160 -991 139 -187 236 -337 467 -724 l220 -367 3 52 c3 49 -13
995 -38 2168 -6 261 -15 718 -20 1015 -6 297 -17 873 -25 1280 -8 407 -19 988
-25 1290 -5 303 -12 613 -15 690 -16 451 164 783 479 885 121 39 354 52 490
26z"/>
</g>
</svg>
