<?xml version="1.0" standalone="no"?>
<!DOCTYPE svg PUBLIC "-//W3C//DTD SVG 20010904//EN"
 "http://www.w3.org/TR/2001/REC-SVG-20010904/DTD/svg10.dtd">
<svg version="1.0" xmlns="http://www.w3.org/2000/svg"
 width="7677.000000pt" height="7677.000000pt" viewBox="0 0 7677.000000 7677.000000"
 preserveAspectRatio="xMidYMid meet">

<g transform="translate(0.000000,7677.000000) scale(0.100000,-0.100000)"
fill="#000000" stroke="none">
<path d="M43208 69220 c-1878 -65 -3691 -487 -5383 -1252 -261 -118 -778 -379
-1025 -516 -947 -528 -1791 -1131 -2620 -1870 -208 -185 -832 -807 -1016
-1012 -1857 -2065 -3047 -4529 -3489 -7225 -138 -838 -192 -1588 -182 -2485 6
-477 12 -616 42 -995 276 -3387 1763 -6559 4196 -8950 2218 -2178 5072 -3565
8139 -3954 578 -74 996 -101 1636 -108 682 -7 1161 15 1764 82 3735 418 7143
2302 9502 5253 1567 1961 2587 4311 2947 6792 164 1132 192 2305 81 3450 -186
1916 -768 3788 -1700 5470 -819 1479 -1895 2800 -3181 3906 -2285 1965 -5138
3148 -8144 3378 -473 37 -1121 51 -1567 36z m1302 -1464 c1063 -75 2006 -251
2981 -556 1236 -385 2454 -987 3519 -1738 607 -428 1126 -867 1676 -1417 388
-388 676 -709 985 -1100 1304 -1646 2175 -3572 2548 -5632 191 -1054 248
-2185 166 -3258 -205 -2651 -1219 -5145 -2920 -7180 -1143 -1368 -2543 -2472
-4130 -3260 -2046 -1014 -4301 -1456 -6590 -1290 -2198 160 -4307 884 -6137
2106 -932 623 -1796 1383 -2546 2242 -569 651 -1109 1420 -1541 2197 -125 225
-387 751 -495 995 -1011 2280 -1330 4802 -920 7275 575 3468 2578 6556 5524
8515 1547 1029 3275 1699 5105 1979 475 73 834 107 1455 140 178 9 1111 -3
1320 -18z"/>
<path d="M43340 65414 c-528 -25 -853 -55 -1270 -120 -2832 -437 -5374 -2051
-6992 -4439 -439 -648 -822 -1382 -1103 -2115 -305 -797 -518 -1674 -615
-2540 -47 -428 -54 -571 -55 -1150 0 -628 11 -829 76 -1345 330 -2643 1711
-5097 3815 -6779 1771 -1415 3921 -2202 6186 -2265 1110 -31 2175 106 3228
414 1711 500 3305 1468 4542 2756 1172 1221 2010 2660 2484 4264 864 2924 392
6106 -1281 8641 -396 600 -783 1079 -1285 1588 -1158 1175 -2548 2042 -4105
2562 -865 288 -1712 452 -2660 514 -163 11 -829 20 -965 14z m836 -1454 c2666
-154 5088 -1461 6686 -3610 1038 -1396 1639 -3062 1739 -4822 15 -272 7 -979
-15 -1223 -126 -1404 -527 -2657 -1229 -3840 -275 -463 -626 -941 -1005 -1370
-144 -162 -588 -607 -742 -741 -816 -716 -1664 -1238 -2641 -1627 -2103 -838
-4496 -835 -6604 8 -1392 556 -2605 1443 -3585 2620 -51 61 -165 208 -255 327
-890 1182 -1478 2592 -1689 4048 -71 490 -90 767 -90 1305 0 456 10 653 54
1034 88 772 288 1561 578 2286 806 2014 2335 3681 4272 4659 1123 567 2291
877 3580 949 143 8 787 6 946 -3z"/>
<path d="M43840 62294 c-220 -42 -419 -192 -516 -389 -55 -113 -74 -206 -74
-369 l0 -141 -142 -33 c-1419 -332 -2526 -1485 -2802 -2918 -52 -270 -60 -366
-60 -714 0 -356 8 -454 65 -735 190 -946 727 -1768 1519 -2322 412 -288 864
-482 1398 -598 l22 -5 0 -2265 c0 -1246 -2 -2265 -4 -2265 -17 0 -205 79 -295
124 -607 304 -1031 832 -1202 1496 -65 254 -184 410 -391 515 -121 61 -211 79
-357 72 -81 -4 -136 -12 -181 -27 -333 -112 -542 -432 -501 -769 12 -92 58
-272 111 -431 358 -1064 1179 -1912 2233 -2306 133 -50 375 -122 503 -149 l82
-17 4 -107 c9 -192 74 -337 213 -476 140 -140 303 -206 505 -206 392 0 699
292 717 681 l5 106 142 33 c909 213 1713 771 2236 1551 326 487 529 1029 606
1620 21 168 30 578 15 755 -100 1210 -760 2278 -1791 2897 -362 218 -734 363
-1182 462 l-28 6 0 2265 c0 1246 1 2265 3 2265 17 0 235 -93 327 -141 465
-237 843 -640 1049 -1121 69 -160 117 -320 147 -483 46 -259 54 -288 93 -369
97 -198 264 -333 481 -387 175 -44 398 -10 544 84 137 89 210 171 277 312 70
147 83 277 49 495 -161 1045 -738 1956 -1610 2540 -372 249 -787 430 -1217
531 l-143 34 0 141 c0 108 -5 159 -20 220 -62 245 -236 432 -480 514 -51 17
-94 23 -195 25 -71 2 -141 1 -155 -1z m-590 -4564 c0 -1193 -1 -2170 -3 -2170
-2 0 -48 18 -103 39 -733 285 -1269 926 -1419 1694 -128 654 40 1341 453 1858
201 251 457 463 735 605 99 51 310 143 330 144 4 0 7 -976 7 -2170z m1725
-3970 c237 -115 430 -253 620 -445 658 -662 844 -1650 474 -2513 -208 -485
-586 -887 -1058 -1126 -105 -53 -298 -136 -316 -136 -3 0 -5 976 -5 2170 l0
2170 73 -26 c39 -14 135 -56 212 -94z"/>
<path d="M40200 39253 c-1751 -28 -3954 -138 -6685 -333 -880 -63 -1242 -104
-1810 -206 -3920 -702 -7816 -3188 -11511 -7345 -1547 -1740 -3081 -3811
-4467 -6029 -115 -184 -215 -345 -223 -357 -13 -21 -16 -20 -166 87 -284 203
-481 274 -763 274 -248 0 -457 -65 -664 -207 -161 -110 -131 -70 -1888 -2522
-910 -1270 -1678 -2343 -1706 -2384 -255 -377 -256 -879 -5 -1268 68 -105 159
-205 251 -276 97 -75 15256 -10943 15307 -10974 459 -279 1051 -211 1423 164
60 61 455 606 1773 2443 1847 2577 1772 2467 1830 2685 32 123 43 320 25 445
-26 177 -92 347 -191 496 -85 127 -209 240 -458 418 -122 87 -224 162 -227
165 -11 19 1397 1590 1989 2221 1948 2073 3402 3245 4621 3727 363 144 531
184 1145 272 1104 160 2221 260 3465 311 811 33 1044 35 3415 32 2665 -3 3165
3 4180 53 2975 148 5626 649 8475 1599 879 294 1924 685 2465 924 1461 644
2791 1625 3861 2847 950 1086 1724 2390 2248 3788 909 2425 986 4953 193 6261
-306 504 -709 807 -1222 918 -92 20 -134 22 -335 23 -253 0 -342 -12 -554 -75
-705 -210 -1449 -823 -2195 -1810 -186 -245 -245 -328 -449 -630 -386 -569
-692 -945 -1127 -1380 -735 -736 -1603 -1354 -2635 -1875 -2050 -1036 -4679
-1643 -7795 -1800 -1017 -51 -2215 -53 -3295 -5 -1331 60 -2723 191 -4095 386
-586 83 -1404 215 -1418 229 -3 3 14 5 37 5 55 0 669 52 1001 85 3367 333
5677 968 6925 1905 536 402 879 842 1060 1360 79 228 164 603 206 915 26 194
37 610 20 791 -39 426 -136 768 -315 1119 -468 918 -1434 1574 -2912 1978
-1181 324 -2700 498 -4749 547 -354 8 -1616 10 -2055 3z m2269 -1453 c2673
-82 4417 -403 5412 -996 537 -321 816 -697 900 -1219 22 -131 16 -461 -10
-635 -43 -281 -116 -560 -180 -688 -170 -335 -580 -670 -1166 -953 -1469 -709
-3990 -1180 -7380 -1379 -919 -54 -1693 -78 -3110 -99 -553 -8 -561 -9 -655
-34 -165 -43 -279 -106 -384 -212 -88 -88 -144 -180 -188 -311 -20 -60 -23
-89 -23 -219 0 -130 3 -159 23 -219 100 -298 307 -476 772 -664 711 -286 2110
-650 3606 -936 2150 -411 4361 -668 6514 -756 1070 -43 2293 -38 3315 15 4573
238 8164 1401 10610 3435 784 651 1399 1335 1995 2215 101 149 227 331 282
405 597 821 1150 1340 1588 1491 91 31 210 32 265 2 46 -25 139 -118 182 -183
161 -241 283 -657 339 -1160 22 -196 30 -781 15 -1022 -83 -1284 -457 -2629
-1086 -3903 -849 -1721 -2108 -3146 -3630 -4110 -551 -349 -1048 -599 -1735
-870 -1691 -669 -3352 -1186 -4956 -1544 -1673 -372 -3281 -582 -5154 -671
-905 -43 -1657 -51 -3930 -44 -1970 6 -2570 2 -3320 -26 -1340 -50 -2474 -147
-3650 -311 -581 -81 -814 -124 -1088 -201 -1174 -326 -2504 -1191 -4042 -2628
-955 -893 -2024 -2028 -3544 -3762 -117 -134 -203 -225 -210 -221 -15 9
-12158 8714 -12169 8723 -9 8 158 283 458 755 2231 3507 4681 6419 7170 8521
2834 2393 5708 3745 8573 4034 273 27 1172 92 2222 160 2137 137 3847 211
5435 234 355 5 1600 -4 1934 -14z m-20449 -19300 c4023 -2883 7323 -5250 7332
-5259 16 -15 -86 -160 -1460 -2076 -812 -1132 -1480 -2059 -1483 -2060 -3 0
-3316 2374 -7362 5275 -4586 3287 -7356 5279 -7352 5287 2 7 667 937 1477
2067 l1473 2054 30 -22 c17 -12 3322 -2382 7345 -5266z"/>
</g>
</svg>
