<?xml version="1.0" standalone="no"?>
<!DOCTYPE svg PUBLIC "-//W3C//DTD SVG 20010904//EN"
 "http://www.w3.org/TR/2001/REC-SVG-20010904/DTD/svg10.dtd">
<svg version="1.0" xmlns="http://www.w3.org/2000/svg"
 width="1120.000000pt" height="872.000000pt" viewBox="0 0 1120.000000 872.000000"
 preserveAspectRatio="xMidYMid meet">

<g transform="translate(0.000000,872.000000) scale(0.100000,-0.100000)"
fill="#000000" stroke="none">
<path d="M324 8636 c-61 -27 -70 -134 -16 -176 24 -20 25 -23 9 -31 -40 -23
-47 -59 -47 -260 l0 -191 33 -32 32 -32 -30 -26 -30 -26 0 -212 0 -212 29 -25
c26 -22 28 -26 13 -35 -40 -22 -47 -59 -47 -248 0 -193 10 -242 51 -255 16 -5
15 -9 -14 -35 l-32 -28 0 -212 0 -212 29 -25 c30 -25 30 -25 9 -42 -39 -31
-43 -54 -43 -246 0 -159 3 -191 17 -216 10 -16 25 -32 35 -35 15 -4 12 -9 -15
-34 l-32 -28 0 -212 0 -212 29 -25 c26 -22 28 -26 13 -35 -40 -22 -47 -59 -47
-247 0 -181 5 -214 35 -244 24 -25 89 -22 114 5 29 31 33 61 29 267 l-3 183
-29 23 -29 23 29 25 29 25 0 212 0 212 -31 28 -32 28 24 10 c38 18 46 68 42
275 l-3 189 -29 23 -29 23 29 25 29 25 3 207 3 206 -34 34 c-30 30 -32 35 -17
40 40 13 50 62 50 255 0 187 -4 211 -43 241 -21 17 -21 17 9 42 l29 25 0 212
0 212 -30 26 -30 27 30 27 30 26 0 212 0 212 -29 24 c-27 24 -28 26 -10 39 14
11 54 14 156 15 l137 0 35 30 c33 29 35 30 48 12 26 -38 51 -42 245 -42 199 0
229 6 248 47 9 22 10 22 36 -10 l27 -32 205 -3 205 -3 35 31 c34 29 36 30 49
12 26 -38 51 -42 245 -42 199 0 229 6 248 47 9 22 10 22 36 -10 l27 -32 206
-3 207 -3 34 34 33 33 13 -22 c21 -40 53 -45 264 -42 l197 3 23 29 23 29 25
-29 25 -29 207 -3 206 -3 34 34 c31 31 35 33 40 16 14 -44 53 -50 267 -47
l200 3 23 29 23 29 25 -29 25 -29 207 -3 206 -3 34 34 c31 31 35 33 40 16 14
-44 53 -50 267 -47 l200 3 23 29 23 29 25 -29 25 -29 207 -3 206 -3 32 33 32
33 32 -33 32 -33 207 3 206 3 24 28 24 28 24 -28 24 -28 206 -3 206 -3 31 31
31 31 23 -25 c13 -14 34 -28 47 -31 14 -4 111 -5 217 -3 l193 3 24 28 24 28
24 -28 24 -28 206 -3 206 -3 32 32 c31 31 32 31 48 12 31 -39 53 -43 247 -43
200 0 228 6 249 48 l11 23 16 -24 c12 -18 16 -58 19 -166 l3 -143 32 -28 c30
-27 31 -29 12 -35 -40 -13 -49 -61 -49 -255 0 -187 4 -211 43 -241 21 -17 21
-17 -9 -42 l-29 -25 -3 -207 -3 -206 34 -34 c28 -28 32 -35 18 -40 -9 -3 -24
-18 -34 -34 -14 -25 -17 -57 -17 -216 0 -194 7 -231 47 -253 15 -9 13 -13 -13
-35 l-29 -25 -3 -207 -3 -206 34 -34 c30 -30 32 -35 17 -40 -40 -13 -50 -62
-50 -255 0 -187 4 -211 43 -241 21 -17 21 -17 -9 -42 l-29 -25 0 -212 0 -212
32 -28 c29 -26 30 -30 14 -35 -41 -13 -51 -62 -51 -255 0 -189 7 -226 47 -248
15 -9 13 -13 -13 -35 l-29 -25 0 -210 0 -211 28 -29 c28 -29 28 -30 8 -44 -35
-24 -41 -63 -41 -249 0 -188 7 -225 47 -247 15 -9 13 -13 -13 -35 l-29 -25 0
-212 0 -212 28 -24 29 -24 -31 -36 -31 -35 0 -190 c0 -198 7 -235 47 -257 15
-9 13 -13 -13 -35 l-29 -25 0 -210 0 -211 28 -29 c28 -29 28 -30 8 -44 -33
-23 -41 -62 -41 -206 0 -159 -7 -179 -43 -136 l-25 29 -189 3 c-201 4 -257 -4
-268 -38 -8 -25 -20 -25 -38 0 -23 33 -63 40 -243 40 -183 0 -231 -9 -252 -46
-9 -16 -12 -15 -35 12 l-25 29 -212 0 -212 0 -25 -30 -26 -29 -17 22 c-30 36
-64 42 -246 42 -189 0 -241 -10 -251 -50 -5 -20 -8 -19 -33 12 l-28 33 -210 0
-211 0 -29 -29 c-29 -27 -31 -27 -41 -8 -18 34 -65 42 -250 42 -148 0 -182 -3
-211 -18 -43 -21 -59 -66 -39 -108 24 -49 47 -54 252 -54 194 0 219 4 245 42
13 18 15 17 48 -12 l35 -30 201 0 201 0 33 36 c23 23 34 30 34 20 0 -9 15 -25
33 -36 29 -18 50 -20 220 -20 193 0 219 4 245 42 13 18 15 17 49 -12 l35 -31
205 3 205 3 24 28 24 28 24 -28 24 -28 193 -3 c106 -2 203 -1 216 2 12 4 33
18 46 32 l24 26 31 -32 32 -31 206 3 206 3 24 28 25 29 20 -26 c25 -31 78 -43
120 -26 52 22 59 50 59 239 0 176 -7 215 -41 239 -20 14 -20 15 8 44 l28 29 0
211 0 210 -29 25 c-26 22 -28 26 -13 35 40 22 47 59 47 257 l0 190 -31 35 -31
36 29 24 28 24 3 199 c3 212 -2 237 -47 259 l-23 12 21 11 c46 25 52 58 49
266 l-3 194 -29 30 -29 30 29 25 29 24 0 212 0 212 -29 25 c-26 22 -28 26 -13
35 40 22 47 59 47 252 0 195 -5 225 -45 246 l-23 12 32 28 31 28 0 212 0 212
-29 25 c-26 22 -28 26 -13 35 40 22 47 59 47 248 0 194 -9 242 -49 255 -19 6
-18 8 12 35 l32 28 0 212 0 212 -29 25 -29 25 29 23 29 23 3 200 c3 215 -3
253 -47 267 -19 6 -18 8 12 35 l32 28 0 212 0 212 -29 25 c-26 22 -28 26 -13
35 40 22 47 59 47 246 0 191 -7 232 -44 252 l-24 12 32 28 31 28 3 180 c4 211
-2 234 -67 253 -50 15 -87 5 -121 -31 -26 -28 -28 -28 -33 -10 -10 39 -63 50
-251 50 -182 0 -220 -6 -247 -42 l-17 -22 -25 30 -25 29 -212 0 -212 0 -25
-29 c-23 -27 -26 -28 -35 -12 -21 37 -69 46 -252 46 -181 0 -220 -7 -244 -41
-14 -20 -15 -20 -44 8 l-29 28 -211 0 -210 0 -25 -29 c-23 -27 -26 -28 -35
-12 -21 37 -69 46 -253 46 -188 0 -237 -10 -250 -49 -6 -19 -8 -18 -35 12
l-28 32 -212 0 -212 0 -24 -28 -24 -28 -24 28 -24 28 -189 3 c-205 4 -252 -3
-272 -42 l-13 -24 -28 32 -28 31 -212 0 -212 0 -25 -29 c-23 -27 -26 -28 -35
-12 -21 37 -69 46 -251 46 -186 0 -227 -7 -247 -44 l-12 -24 -28 32 -28 31
-212 0 -212 0 -24 -28 -24 -28 -24 28 -24 28 -189 3 c-207 4 -257 -4 -275 -42
l-10 -24 -28 32 -28 31 -196 3 c-210 3 -242 -3 -267 -50 l-12 -22 -8 22 c-16
42 -63 52 -253 52 -181 0 -220 -7 -244 -41 -14 -20 -15 -20 -44 8 l-29 28
-211 0 -210 0 -29 -35 c-18 -21 -29 -28 -29 -19 0 9 -9 24 -21 35 -19 17 -41
19 -202 22 -207 4 -240 0 -269 -34 l-22 -24 -29 27 -28 28 -177 2 c-134 2
-185 -1 -208 -11z"/>
<path d="M6189 6721 c-37 -38 -39 -82 -4 -116 l24 -25 306 0 c236 0 305 -3
305 -12 0 -7 -335 -348 -745 -758 -791 -791 -767 -764 -728 -820 23 -35 33
-40 73 -40 33 0 76 41 780 745 410 410 748 745 752 745 5 0 8 -137 8 -305 l0
-306 25 -24 c33 -34 93 -34 123 -2 22 23 22 26 22 454 0 237 -3 439 -6 448
-17 43 -41 45 -484 45 l-422 0 -29 -29z"/>
<path d="M4139 4838 c-1 -24 -2 -47 -4 -53 -1 -5 -3 -38 -3 -72 l-2 -63 -1884
0 c-1352 0 -1892 -3 -1915 -11 -65 -23 -61 90 -61 -1639 0 -1708 -3 -1612 55
-1638 19 -9 254 -12 945 -12 l920 0 0 -210 0 -210 -263 0 c-230 0 -266 -2
-287 -17 -35 -24 -40 -33 -40 -75 0 -39 18 -64 57 -79 37 -14 2172 -12 2212 2
17 6 36 19 41 29 14 26 12 82 -3 101 -28 36 -52 39 -316 39 l-261 0 0 210 0
210 920 0 c691 0 926 3 945 12 58 26 55 -68 55 1608 l0 1540 1438 0 c790 0
1442 4 1449 8 10 6 12 162 5 330 l-2 32 -2000 0 -2000 0 -1 -42z m238 -75 c18
-23 4 -37 -17 -18 -21 19 -55 16 -55 -4 0 -8 14 -19 30 -24 42 -13 55 -26 55
-51 0 -32 -19 -46 -60 -46 -37 0 -60 14 -60 37 0 18 18 16 37 -2 19 -20 47
-15 51 8 3 12 -5 19 -27 23 -40 8 -65 36 -56 64 13 40 75 47 102 13z m313 -58
c0 -69 -3 -85 -15 -85 -12 0 -15 16 -15 85 0 69 3 85 15 85 12 0 15 -16 15
-85z m180 60 c0 -21 5 -25 28 -25 37 0 52 -17 52 -60 0 -47 -15 -60 -67 -60
l-43 0 0 85 c0 69 3 85 15 85 9 0 15 -9 15 -25z m130 -60 c0 -69 -3 -85 -15
-85 -12 0 -15 15 -15 78 0 43 3 82 7 85 18 18 23 0 23 -78z m343 57 c9 -8 17
-19 17 -24 0 -13 -27 -9 -40 7 -16 19 -35 19 -54 -1 -22 -21 -20 -67 4 -89 19
-17 30 -16 62 7 25 18 34 2 13 -22 -26 -29 -89 -27 -109 2 -18 26 -21 80 -5
109 21 39 74 45 112 11z m740 13 c1 -5 -6 -11 -15 -13 -11 -2 -18 3 -18 13 0
17 30 18 33 0z m457 -11 c11 -11 11 -17 2 -26 -9 -9 -15 -8 -25 6 -10 13 -20
16 -36 11 -29 -9 -22 -26 15 -38 41 -13 54 -26 54 -51 0 -32 -19 -46 -60 -46
-37 0 -60 14 -60 37 0 7 7 13 15 13 8 0 15 -4 15 -9 0 -13 27 -21 45 -15 25
10 17 34 -14 40 -40 8 -65 37 -56 64 12 39 70 47 105 14z m286 3 c35 -30 38
-98 6 -129 -27 -27 -78 -26 -106 1 -32 32 -28 96 7 127 35 30 59 30 93 1z
m274 8 c0 -8 -6 -15 -14 -15 -17 0 -28 14 -19 24 12 12 33 6 33 -9z m-410 -5
c0 -5 -18 -10 -40 -10 -33 0 -40 -3 -40 -20 0 -16 7 -20 35 -20 24 0 35 -5 35
-15 0 -10 -11 -15 -35 -15 -28 0 -35 -4 -35 -19 0 -16 8 -20 37 -23 62 -5 53
-28 -11 -28 l-56 0 0 80 0 80 55 0 c30 0 55 -4 55 -10z m280 -54 l0 -65 37 -3
c20 -2 38 -9 41 -16 3 -10 -9 -12 -49 -10 l-54 3 -3 78 c-2 64 0 77 13 77 12
0 15 -13 15 -64z m500 -17 c0 -60 -3 -80 -12 -77 -9 3 -14 31 -16 81 -2 64 0
77 13 77 12 0 15 -15 15 -81z m-1460 51 c24 -24 25 -30 5 -30 -10 0 -15 -10
-15 -29 0 -16 7 -34 15 -41 21 -17 19 -30 -5 -30 -24 0 -37 24 -40 75 -5 81 3
92 40 55z m-1499 -31 c11 -22 -9 -27 -28 -8 -19 19 -43 2 -43 -30 0 -31 18
-45 41 -30 26 16 41 11 29 -11 -8 -14 -21 -20 -45 -20 -40 0 -58 24 -53 73 5
53 74 71 99 26z m117 -43 l3 -56 -39 0 c-67 0 -84 55 -22 70 13 3 26 12 28 19
3 10 -3 11 -27 6 -37 -8 -43 11 -8 24 44 16 62 -1 65 -63z m180 0 l3 -56 -39
0 c-67 0 -84 55 -22 70 13 3 26 12 28 19 3 10 -3 11 -27 6 -37 -8 -43 11 -8
24 44 16 62 -1 65 -63z m323 37 c14 -39 11 -43 -31 -43 -41 0 -53 -13 -24 -24
9 -4 23 -1 30 5 19 15 38 1 23 -17 -15 -18 -73 -18 -88 0 -21 25 -9 89 17 102
32 16 62 6 73 -23z m347 14 c15 -12 16 -79 0 -95 -17 -17 -73 -15 -87 2 -7 8
-11 32 -9 53 4 55 51 75 96 40z m111 14 c8 -5 22 -6 30 -1 9 4 26 4 39 -1 19
-7 22 -15 22 -64 0 -41 -4 -55 -14 -55 -11 0 -16 14 -18 48 -2 34 -7 47 -18
47 -11 0 -16 -13 -18 -47 -2 -33 -8 -48 -17 -48 -9 0 -15 15 -17 48 -2 34 -7
47 -18 47 -11 0 -16 -13 -18 -47 -2 -34 -7 -48 -18 -48 -11 0 -14 14 -14 59 0
57 1 60 28 64 15 2 29 5 32 5 3 1 12 -2 19 -7z m221 -31 c18 -44 -5 -85 -48
-85 -27 0 -32 -4 -32 -22 0 -14 -6 -23 -15 -23 -12 0 -15 15 -15 79 l0 80 33
3 c49 5 64 -1 77 -32z m398 -34 c2 -44 0 -56 -12 -56 -11 0 -16 13 -18 48 -2
34 -7 47 -18 47 -11 0 -16 -13 -18 -47 -2 -34 -7 -48 -18 -48 -11 0 -14 14
-14 59 0 58 1 60 28 63 55 7 67 -4 70 -66z m142 10 c0 -72 -9 -95 -36 -102
-33 -9 -74 3 -74 22 0 12 7 14 34 9 21 -4 36 -3 41 5 5 7 1 11 -11 10 -56 -6
-80 19 -69 71 8 35 31 47 81 41 34 -4 34 -4 34 -56z m858 48 c18 -12 22 -25
22 -65 0 -37 -4 -49 -15 -49 -11 0 -15 12 -15 44 0 32 -5 46 -17 50 -22 9 -33
-10 -33 -56 0 -27 -4 -38 -15 -38 -12 0 -15 13 -15 59 0 57 1 60 28 64 15 2
29 5 32 6 3 0 16 -6 28 -15z m140 -12 c6 -9 12 -24 12 -34 0 -14 -8 -18 -40
-18 -22 0 -40 -4 -40 -9 0 -14 23 -19 43 -9 24 12 41 0 26 -18 -15 -18 -73
-18 -88 0 -7 8 -11 32 -9 53 5 57 61 78 96 35z m253 -3 c11 -22 -9 -27 -28 -8
-19 19 -43 2 -43 -30 0 -31 18 -45 41 -30 26 16 41 11 29 -11 -13 -24 -71 -28
-89 -6 -21 25 -9 89 17 102 29 15 60 7 73 -17z m122 7 c17 -26 18 -57 2 -82
-22 -34 -73 -31 -94 7 -12 22 -12 31 -2 57 7 17 20 33 29 35 22 6 55 -3 65
-17z m125 8 c18 -12 22 -25 22 -65 0 -37 -4 -49 -15 -49 -11 0 -15 12 -15 44
0 32 -5 46 -17 50 -22 9 -33 -10 -33 -56 0 -27 -4 -38 -15 -38 -12 0 -15 13
-15 59 0 57 1 60 28 64 15 2 29 5 32 6 3 0 16 -6 28 -15z m128 -5 c9 -16 -7
-32 -19 -20 -13 13 -37 14 -37 2 0 -5 14 -14 31 -20 25 -9 30 -15 27 -38 -2
-24 -8 -29 -36 -31 -37 -4 -69 15 -53 31 7 7 15 6 26 -3 12 -10 19 -10 27 -2
8 8 4 14 -18 22 -33 13 -44 27 -37 47 11 28 74 36 89 12z m-2113 -30 c10 -76
47 -79 47 -3 0 32 4 44 15 44 12 0 15 -13 15 -61 l0 -60 -47 3 -48 3 -3 58
c-3 65 13 78 21 16z m217 -19 c0 -47 -3 -60 -15 -60 -12 0 -15 13 -15 60 0 47
3 60 15 60 12 0 15 -13 15 -60z m1020 0 c0 -47 -3 -60 -15 -60 -12 0 -15 13
-15 60 0 47 3 60 15 60 12 0 15 -13 15 -60z m-2030 -1325 c0 -1055 -1 -1115
-17 -1115 -13 0 -2996 0 -4580 0 l-23 0 0 1115 0 1115 2310 0 2310 0 0 -1115z
m0 -1560 l0 -265 -2310 0 -2310 0 0 265 0 265 2310 0 2310 0 0 -265z m-1920
-655 l0 -210 -390 0 -390 0 0 210 0 210 390 0 390 0 0 -210z"/>
<path d="M4877 4714 c-12 -13 -8 -62 6 -67 23 -9 39 9 35 39 -3 27 -26 43 -41
28z"/>
<path d="M6758 4749 c-26 -15 -25 -85 2 -99 14 -8 26 -8 40 0 28 15 28 85 1
100 -23 12 -22 12 -43 -1z"/>
<path d="M4565 4661 c-10 -18 17 -23 33 -7 15 15 15 16 -5 16 -12 0 -24 -4
-28 -9z"/>
<path d="M4745 4661 c-10 -18 17 -23 33 -7 15 15 15 16 -5 16 -12 0 -24 -4
-28 -9z"/>
<path d="M5065 4710 c-3 -5 3 -10 14 -10 12 0 21 5 21 10 0 6 -6 10 -14 10 -8
0 -18 -4 -21 -10z"/>
<path d="M5417 4714 c-12 -13 -8 -62 6 -67 23 -9 39 9 35 39 -3 27 -26 43 -41
28z"/>
<path d="M5742 4708 c-15 -15 -15 -41 0 -56 15 -15 48 3 48 26 0 17 -18 42
-30 42 -3 0 -11 -5 -18 -12z"/>
<path d="M6272 4708 c-16 -16 -15 -33 4 -48 22 -19 54 12 38 37 -14 22 -27 26
-42 11z"/>
<path d="M7285 4710 c-3 -5 3 -10 15 -10 12 0 18 5 15 10 -3 6 -10 10 -15 10
-5 0 -12 -4 -15 -10z"/>
<path d="M7660 4705 c-19 -23 -8 -50 20 -50 16 0 26 6 28 18 4 18 -14 47 -28
47 -4 0 -13 -7 -20 -15z"/>
<path d="M2715 1888 c-59 -32 -75 -114 -31 -161 66 -71 176 -28 176 67 -1 79
-80 130 -145 94z"/>
</g>
</svg>
